<svg class="icon icon-gift" viewBox="0 0 16 16" fill="none" xmlns="http://www.w3.org/2000/svg" aria-hidden="true" focusable="false"><path fill="currentColor" d="M2 7h12v8H2V7Zm1.5 1.5v5h9v-5h-9Z"/><path fill="currentColor" d="M1 4h14v4H1V4Zm1.5 1.5v1h11v-1h-11Z"/><path fill="currentColor" d="M7.25 4h1.5v11h-1.5V4Z"/><path fill="currentColor" d="M5.1 1C6.4 1 7.3 2.2 8 3.1 8.7 2.2 9.6 1 10.9 1 12.1 1 13 1.9 13 3s-.9 2-2.1 2H5.1C3.9 5 3 4.1 3 3s.9-2 2.1-2Zm0 1.5c-.4 0-.6.3-.6.5s.2.5.6.5h2C6.6 2.9 6 2.5 5.1 2.5Zm3.8 1h2c.4 0 .6-.3.6-.5s-.2-.5-.6-.5c-.9 0-1.5.4-2 1Z"/></svg>